<svg role="img" viewBox="0 0 24 24" xmlns="http://www.w3.org/2000/svg" id="Raylib--Streamline-Simple-Icons" height="24" width="24">
  <desc>
    Raylib Streamline Icon: https://streamlinehq.com
  </desc>
  <title>Raylib</title>
  <path d="M0 0v24h24V0H0Zm1.5 1.5h21v21h-21v-21Zm14.813 15.469v3.281h0.937v-0.469h-0.469V16.97h-0.468Zm1.406 0v0.468h0.468v-0.468h-0.468Zm0.937 0v3.281H21v-2.344h-1.875v-0.937h-0.469Zm-10.781 0.937v2.344h0.469v-1.875h1.875v-0.469H7.875Zm2.813 0v0.469h1.874v0.469h-1.874v1.406h2.343v-2.344h-2.344Zm2.812 0v2.344h1.875v0.469H13.5v0.468h2.344v-3.28h-0.469v1.874h-1.406v-1.875H13.5Zm4.219 0v2.344h0.468v-2.344h-0.468Zm1.406 0.469h1.406v1.406h-1.406v-1.406Zm-7.969 0.938h1.406v0.468h-1.406v-0.468Z" fill="#000000" stroke-width="1"></path>
</svg>